<?xml version="1.0" encoding="us-ascii" standalone="no"?><svg xmlns="http://www.w3.org/2000/svg" xmlns:xlink="http://www.w3.org/1999/xlink" contentStyleType="text/css" height="701px" preserveAspectRatio="none" style="width:911px;height:701px;background:#FFFFFF;" version="1.1" viewBox="0 0 911 701" width="911px" zoomAndPan="magnify"><defs/><g><text fill="#000000" font-family="sans-serif" font-size="14" font-weight="bold" lengthAdjust="spacing" textLength="274" x="314.75" y="28.5352">AI Anomaly Detector - Main Sequence</text><line style="stroke:#181818;stroke-width:0.5;stroke-dasharray:5.0,5.0;" x1="23" x2="23" y1="118.9766" y2="620.6348"/><line style="stroke:#181818;stroke-width:0.5;stroke-dasharray:5.0,5.0;" x1="237" x2="237" y1="118.9766" y2="620.6348"/><line style="stroke:#181818;stroke-width:0.5;stroke-dasharray:5.0,5.0;" x1="336" x2="336" y1="118.9766" y2="620.6348"/><line style="stroke:#181818;stroke-width:0.5;stroke-dasharray:5.0,5.0;" x1="443" x2="443" y1="118.9766" y2="620.6348"/><line style="stroke:#181818;stroke-width:0.5;stroke-dasharray:5.0,5.0;" x1="556.5" x2="556.5" y1="118.9766" y2="620.6348"/><line style="stroke:#181818;stroke-width:0.5;stroke-dasharray:5.0,5.0;" x1="710" x2="710" y1="118.9766" y2="620.6348"/><line style="stroke:#181818;stroke-width:0.5;stroke-dasharray:5.0,5.0;" x1="854.5" x2="854.5" y1="118.9766" y2="620.6348"/><text fill="#000000" font-family="sans-serif" font-size="14" lengthAdjust="spacing" textLength="31" x="5" y="116.0234">User</text><ellipse cx="23.5" cy="50.9883" fill="#E2E2F0" rx="8" ry="8" style="stroke:#181818;stroke-width:0.5;"/><path d="M23.5,58.9883 L23.5,85.9883 M10.5,66.9883 L36.5,66.9883 M23.5,85.9883 L10.5,100.9883 M23.5,85.9883 L36.5,100.9883 " fill="none" style="stroke:#181818;stroke-width:0.5;"/><text fill="#000000" font-family="sans-serif" font-size="14" lengthAdjust="spacing" textLength="31" x="5" y="633.1699">User</text><ellipse cx="23.5" cy="644.623" fill="#E2E2F0" rx="8" ry="8" style="stroke:#181818;stroke-width:0.5;"/><path d="M23.5,652.623 L23.5,679.623 M10.5,660.623 L36.5,660.623 M23.5,679.623 L10.5,694.623 M23.5,679.623 L36.5,694.623 " fill="none" style="stroke:#181818;stroke-width:0.5;"/><rect fill="#E2E2F0" height="30.4883" rx="2.5" ry="2.5" style="stroke:#181818;stroke-width:0.5;" width="81" x="197" y="87.4883"/><text fill="#000000" font-family="sans-serif" font-size="14" lengthAdjust="spacing" textLength="67" x="204" y="108.0234">Front End</text><rect fill="#E2E2F0" height="30.4883" rx="2.5" ry="2.5" style="stroke:#181818;stroke-width:0.5;" width="81" x="197" y="619.6348"/><text fill="#000000" font-family="sans-serif" font-size="14" lengthAdjust="spacing" textLength="67" x="204" y="640.1699">Front End</text><rect fill="#E2E2F0" height="30.4883" rx="2.5" ry="2.5" style="stroke:#181818;stroke-width:0.5;" width="97" x="288" y="87.4883"/><text fill="#000000" font-family="sans-serif" font-size="14" lengthAdjust="spacing" textLength="83" x="295" y="108.0234">Data Stream</text><rect fill="#E2E2F0" height="30.4883" rx="2.5" ry="2.5" style="stroke:#181818;stroke-width:0.5;" width="97" x="288" y="619.6348"/><text fill="#000000" font-family="sans-serif" font-size="14" lengthAdjust="spacing" textLength="83" x="295" y="640.1699">Data Stream</text><rect fill="#E2E2F0" height="30.4883" rx="2.5" ry="2.5" style="stroke:#181818;stroke-width:0.5;" width="97" x="395" y="87.4883"/><text fill="#000000" font-family="sans-serif" font-size="14" lengthAdjust="spacing" textLength="83" x="402" y="108.0234">API Gateway</text><rect fill="#E2E2F0" height="30.4883" rx="2.5" ry="2.5" style="stroke:#181818;stroke-width:0.5;" width="97" x="395" y="619.6348"/><text fill="#000000" font-family="sans-serif" font-size="14" lengthAdjust="spacing" textLength="83" x="402" y="640.1699">API Gateway</text><rect fill="#E2E2F0" height="30.4883" rx="2.5" ry="2.5" style="stroke:#181818;stroke-width:0.5;" width="80" x="516.5" y="87.4883"/><text fill="#000000" font-family="sans-serif" font-size="14" lengthAdjust="spacing" textLength="66" x="523.5" y="108.0234">AI Service</text><rect fill="#E2E2F0" height="30.4883" rx="2.5" ry="2.5" style="stroke:#181818;stroke-width:0.5;" width="80" x="516.5" y="619.6348"/><text fill="#000000" font-family="sans-serif" font-size="14" lengthAdjust="spacing" textLength="66" x="523.5" y="640.1699">AI Service</text><rect fill="#E2E2F0" height="30.4883" rx="2.5" ry="2.5" style="stroke:#181818;stroke-width:0.5;" width="95" x="663" y="87.4883"/><text fill="#000000" font-family="sans-serif" font-size="14" lengthAdjust="spacing" textLength="81" x="670" y="108.0234">AI Retrainer</text><rect fill="#E2E2F0" height="30.4883" rx="2.5" ry="2.5" style="stroke:#181818;stroke-width:0.5;" width="95" x="663" y="619.6348"/><text fill="#000000" font-family="sans-serif" font-size="14" lengthAdjust="spacing" textLength="81" x="670" y="640.1699">AI Retrainer</text><rect fill="#E2E2F0" height="30.4883" rx="2.5" ry="2.5" style="stroke:#181818;stroke-width:0.5;" width="90" x="809.5" y="87.4883"/><text fill="#000000" font-family="sans-serif" font-size="14" lengthAdjust="spacing" textLength="76" x="816.5" y="108.0234">Event Hubs</text><rect fill="#E2E2F0" height="30.4883" rx="2.5" ry="2.5" style="stroke:#181818;stroke-width:0.5;" width="90" x="809.5" y="619.6348"/><text fill="#000000" font-family="sans-serif" font-size="14" lengthAdjust="spacing" textLength="76" x="816.5" y="640.1699">Event Hubs</text><rect fill="#EEEEEE" height="3" style="stroke:#EEEEEE;stroke-width:1.0;" width="904.5" x="0" y="149.6318"/><line style="stroke:#000000;stroke-width:1.0;" x1="0" x2="904.5" y1="149.6318" y2="149.6318"/><line style="stroke:#000000;stroke-width:1.0;" x1="0" x2="904.5" y1="152.6318" y2="152.6318"/><rect fill="#EEEEEE" height="23.3105" style="stroke:#000000;stroke-width:2.0;" width="156" x="374.25" y="138.9766"/><text fill="#000000" font-family="sans-serif" font-size="13" font-weight="bold" lengthAdjust="spacing" textLength="138" x="380.25" y="155.5449">Data Collection Loop</text><polygon fill="#181818" points="431.5,189.5977,441.5,193.5977,431.5,197.5977,435.5,193.5977" style="stroke:#181818;stroke-width:1.0;"/><line style="stroke:#181818;stroke-width:1.0;" x1="336.5" x2="437.5" y1="193.5977" y2="193.5977"/><text fill="#000000" font-family="sans-serif" font-size="13" lengthAdjust="spacing" textLength="63" x="343.5" y="188.8555">POST data</text><polygon fill="#181818" points="842.5,218.9082,852.5,222.9082,842.5,226.9082,846.5,222.9082" style="stroke:#181818;stroke-width:1.0;"/><line style="stroke:#181818;stroke-width:1.0;" x1="443.5" x2="848.5" y1="222.9082" y2="222.9082"/><text fill="#000000" font-family="sans-serif" font-size="13" lengthAdjust="spacing" textLength="77" x="450.5" y="218.166">Publish data</text><rect fill="#EEEEEE" height="3" style="stroke:#EEEEEE;stroke-width:1.0;" width="904.5" x="0" y="251.5635"/><line style="stroke:#000000;stroke-width:1.0;" x1="0" x2="904.5" y1="251.5635" y2="251.5635"/><line style="stroke:#000000;stroke-width:1.0;" x1="0" x2="904.5" y1="254.5635" y2="254.5635"/><rect fill="#EEEEEE" height="23.3105" style="stroke:#000000;stroke-width:2.0;" width="113" x="395.75" y="240.9082"/><text fill="#000000" font-family="sans-serif" font-size="13" font-weight="bold" lengthAdjust="spacing" textLength="95" x="401.75" y="257.4766">User Initiation</text><polygon fill="#181818" points="225.5,291.5293,235.5,295.5293,225.5,299.5293,229.5,295.5293" style="stroke:#181818;stroke-width:1.0;"/><line style="stroke:#181818;stroke-width:1.0;" x1="23.5" x2="231.5" y1="295.5293" y2="295.5293"/><text fill="#000000" font-family="sans-serif" font-size="13" lengthAdjust="spacing" textLength="100" x="30.5" y="290.7871">Front end starts</text><polygon fill="#181818" points="431.5,320.8398,441.5,324.8398,431.5,328.8398,435.5,324.8398" style="stroke:#181818;stroke-width:1.0;"/><line style="stroke:#181818;stroke-width:1.0;" x1="237.5" x2="437.5" y1="324.8398" y2="324.8398"/><text fill="#000000" font-family="sans-serif" font-size="13" lengthAdjust="spacing" textLength="149" x="244.5" y="320.0977">Connect to SignalR Hub</text><rect fill="#EEEEEE" height="3" style="stroke:#EEEEEE;stroke-width:1.0;" width="904.5" x="0" y="353.4951"/><line style="stroke:#000000;stroke-width:1.0;" x1="0" x2="904.5" y1="353.4951" y2="353.4951"/><line style="stroke:#000000;stroke-width:1.0;" x1="0" x2="904.5" y1="356.4951" y2="356.4951"/><rect fill="#EEEEEE" height="23.3105" style="stroke:#000000;stroke-width:2.0;" width="154" x="375.25" y="342.8398"/><text fill="#000000" font-family="sans-serif" font-size="13" font-weight="bold" lengthAdjust="spacing" textLength="136" x="381.25" y="359.4082">User Feedback Loop</text><polygon fill="#181818" points="567.5,393.4609,557.5,397.4609,567.5,401.4609,563.5,397.4609" style="stroke:#181818;stroke-width:1.0;"/><line style="stroke:#181818;stroke-width:1.0;" x1="561.5" x2="853.5" y1="397.4609" y2="397.4609"/><text fill="#000000" font-family="sans-serif" font-size="13" lengthAdjust="spacing" textLength="90" x="573.5" y="392.7188">Consume data</text><polygon fill="#181818" points="454.5,422.7715,444.5,426.7715,454.5,430.7715,450.5,426.7715" style="stroke:#181818;stroke-width:1.0;"/><line style="stroke:#181818;stroke-width:1.0;" x1="448.5" x2="555.5" y1="426.7715" y2="426.7715"/><text fill="#000000" font-family="sans-serif" font-size="13" lengthAdjust="spacing" textLength="89" x="460.5" y="422.0293">POST anomaly</text><polygon fill="#181818" points="248.5,452.082,238.5,456.082,248.5,460.082,244.5,456.082" style="stroke:#181818;stroke-width:1.0;"/><line style="stroke:#181818;stroke-width:1.0;" x1="242.5" x2="442.5" y1="456.082" y2="456.082"/><text fill="#000000" font-family="sans-serif" font-size="13" lengthAdjust="spacing" textLength="145" x="254.5" y="451.3398">Push anomaly (SignalR)</text><polygon fill="#181818" points="225.5,481.3926,235.5,485.3926,225.5,489.3926,229.5,485.3926" style="stroke:#181818;stroke-width:1.0;"/><line style="stroke:#181818;stroke-width:1.0;" x1="23.5" x2="231.5" y1="485.3926" y2="485.3926"/><text fill="#000000" font-family="sans-serif" font-size="13" lengthAdjust="spacing" textLength="190" x="30.5" y="480.6504">Anomaly feedback (true/false)</text><polygon fill="#181818" points="431.5,510.7031,441.5,514.7031,431.5,518.7031,435.5,514.7031" style="stroke:#181818;stroke-width:1.0;"/><line style="stroke:#181818;stroke-width:1.0;" x1="237.5" x2="437.5" y1="514.7031" y2="514.7031"/><text fill="#000000" font-family="sans-serif" font-size="13" lengthAdjust="spacing" textLength="93" x="244.5" y="509.9609">POST feedback</text><polygon fill="#181818" points="842.5,540.0137,852.5,544.0137,842.5,548.0137,846.5,544.0137" style="stroke:#181818;stroke-width:1.0;"/><line style="stroke:#181818;stroke-width:1.0;" x1="443.5" x2="848.5" y1="544.0137" y2="544.0137"/><text fill="#000000" font-family="sans-serif" font-size="13" lengthAdjust="spacing" textLength="107" x="450.5" y="539.2715">Publish feedback</text><polygon fill="#181818" points="721.5,569.3242,711.5,573.3242,721.5,577.3242,717.5,573.3242" style="stroke:#181818;stroke-width:1.0;"/><line style="stroke:#181818;stroke-width:1.0;" x1="715.5" x2="853.5" y1="573.3242" y2="573.3242"/><text fill="#000000" font-family="sans-serif" font-size="13" lengthAdjust="spacing" textLength="120" x="727.5" y="568.582">Consume feedback</text><polygon fill="#181818" points="567.5,598.6348,557.5,602.6348,567.5,606.6348,563.5,602.6348" style="stroke:#181818;stroke-width:1.0;"/><line style="stroke:#181818;stroke-width:1.0;" x1="561.5" x2="709.5" y1="602.6348" y2="602.6348"/><text fill="#000000" font-family="sans-serif" font-size="13" lengthAdjust="spacing" textLength="130" x="573.5" y="597.8926">POST updated model</text><!--SRC=[XPBDJiCm48JlVefLJ-sXubufI55R81A8ge47s2PRi73iu6oA-lOuJkByg8XRnldidHajIrO4SGAnDWMgA-o8AMDZOGqlA3Maz5sJpaW8zCVl5LbHecMPoH8rmuCrclSw1wnWuGKujPWmEsHCsH8Mdceaj7hAnQLyHAOVl7ekFYJGwHadKx8NcL6B9T39ENKajYu4sPuB1rDoVo7DJ_MfyfnNqCY5457atSFMAEMAaKR3ip4bH94OfLhVZxnluF2Qla7kVejH8iU4EGwfJqfMdotbXZIzGg8bI_H3tFl-oDtg6zwqNq2kx8gT_Kg4ycS6jaPhvnROG2e_DAfZaoVCUI3AJvXzXIX30Sr3VRl-dQekgCiIMhyL5zi5cYKUl1zgbxQ3ODcvMjq8sM_YkJUvP5lJtHbLHQi_4tiF_PN_Qm_aB7bOa27xyEXedwOr-U5rwLgY70gJanA_]--></g></svg>